<mxfile host="Electron" modified="2023-12-05T16:56:14.596Z" agent="Mozilla/5.0 (Windows NT 10.0; Win64; x64) AppleWebKit/537.36 (KHTML, like Gecko) draw.io/22.1.2 Chrome/114.0.5735.289 Electron/25.9.4 Safari/537.36" etag="gmnV29OyHmJCqaVe7YOa" version="22.1.2" type="device">
  <diagram name="Page-1" id="c4acf3e9-155e-7222-9cf6-157b1a14988f">
    <mxGraphModel dx="2790" dy="1450" grid="1" gridSize="10" guides="1" tooltips="1" connect="1" arrows="1" fold="1" page="1" pageScale="1" pageWidth="850" pageHeight="1100" background="none" math="0" shadow="0">
      <root>
        <mxCell id="0" />
        <mxCell id="1" parent="0" />
        <mxCell id="LMiCmeVsYC1KzsGFryo7-1" value="TelegramBot" style="swimlane;fontStyle=1;align=center;verticalAlign=top;childLayout=stackLayout;horizontal=1;startSize=26;horizontalStack=0;resizeParent=1;resizeParentMax=0;resizeLast=0;collapsible=1;marginBottom=0;whiteSpace=wrap;html=1;" vertex="1" parent="1">
          <mxGeometry x="820" y="515" width="190" height="110" as="geometry">
            <mxRectangle x="500" y="34" width="110" height="30" as="alternateBounds" />
          </mxGeometry>
        </mxCell>
        <mxCell id="LMiCmeVsYC1KzsGFryo7-4" value="+ sendMessage(): void&lt;br&gt;+ receiveMessage(): void&lt;br&gt;+&amp;nbsp;authorization(): void&lt;br&gt;+ checkRegistration(): void" style="text;strokeColor=none;fillColor=none;align=left;verticalAlign=top;spacingLeft=4;spacingRight=4;overflow=hidden;rotatable=0;points=[[0,0.5],[1,0.5]];portConstraint=eastwest;whiteSpace=wrap;html=1;" vertex="1" parent="LMiCmeVsYC1KzsGFryo7-1">
          <mxGeometry y="26" width="190" height="84" as="geometry" />
        </mxCell>
        <mxCell id="LMiCmeVsYC1KzsGFryo7-9" value="Solver" style="swimlane;fontStyle=1;align=center;verticalAlign=top;childLayout=stackLayout;horizontal=1;startSize=26;horizontalStack=0;resizeParent=1;resizeParentMax=0;resizeLast=0;collapsible=1;marginBottom=0;whiteSpace=wrap;html=1;" vertex="1" parent="1">
          <mxGeometry x="1725" y="675" width="160" height="140" as="geometry" />
        </mxCell>
        <mxCell id="LMiCmeVsYC1KzsGFryo7-10" value="+ correntUser&lt;br&gt;+ question&lt;br&gt;+ answer" style="text;strokeColor=none;fillColor=none;align=left;verticalAlign=top;spacingLeft=4;spacingRight=4;overflow=hidden;rotatable=0;points=[[0,0.5],[1,0.5]];portConstraint=eastwest;whiteSpace=wrap;html=1;" vertex="1" parent="LMiCmeVsYC1KzsGFryo7-9">
          <mxGeometry y="26" width="160" height="54" as="geometry" />
        </mxCell>
        <mxCell id="LMiCmeVsYC1KzsGFryo7-11" value="" style="line;strokeWidth=1;fillColor=none;align=left;verticalAlign=middle;spacingTop=-1;spacingLeft=3;spacingRight=3;rotatable=0;labelPosition=right;points=[];portConstraint=eastwest;strokeColor=inherit;" vertex="1" parent="LMiCmeVsYC1KzsGFryo7-9">
          <mxGeometry y="80" width="160" height="8" as="geometry" />
        </mxCell>
        <mxCell id="LMiCmeVsYC1KzsGFryo7-12" value="+ solveTest(): void&lt;br&gt;+ getAnswer(): void&lt;br&gt;+&amp;nbsp;setParser(): void" style="text;strokeColor=none;fillColor=none;align=left;verticalAlign=top;spacingLeft=4;spacingRight=4;overflow=hidden;rotatable=0;points=[[0,0.5],[1,0.5]];portConstraint=eastwest;whiteSpace=wrap;html=1;" vertex="1" parent="LMiCmeVsYC1KzsGFryo7-9">
          <mxGeometry y="88" width="160" height="52" as="geometry" />
        </mxCell>
        <mxCell id="LMiCmeVsYC1KzsGFryo7-14" value="Авторизация" style="shape=umlFrame;whiteSpace=wrap;html=1;pointerEvents=0;width=90;height=30;" vertex="1" parent="1">
          <mxGeometry x="1065" y="370" width="320" height="200" as="geometry" />
        </mxCell>
        <mxCell id="LMiCmeVsYC1KzsGFryo7-15" value="«interface»&lt;br&gt;&lt;b&gt;IAuthStrategy&lt;/b&gt;" style="html=1;whiteSpace=wrap;" vertex="1" parent="1">
          <mxGeometry x="1170" y="388" width="110" height="50" as="geometry" />
        </mxCell>
        <mxCell id="LMiCmeVsYC1KzsGFryo7-16" value="LogPass" style="swimlane;fontStyle=1;align=center;verticalAlign=top;childLayout=stackLayout;horizontal=1;startSize=26;horizontalStack=0;resizeParent=1;resizeParentMax=0;resizeLast=0;collapsible=1;marginBottom=0;whiteSpace=wrap;html=1;" vertex="1" parent="1">
          <mxGeometry x="1080" y="474" width="130" height="86" as="geometry" />
        </mxCell>
        <mxCell id="LMiCmeVsYC1KzsGFryo7-17" value="+ field: type" style="text;strokeColor=none;fillColor=none;align=left;verticalAlign=top;spacingLeft=4;spacingRight=4;overflow=hidden;rotatable=0;points=[[0,0.5],[1,0.5]];portConstraint=eastwest;whiteSpace=wrap;html=1;" vertex="1" parent="LMiCmeVsYC1KzsGFryo7-16">
          <mxGeometry y="26" width="130" height="26" as="geometry" />
        </mxCell>
        <mxCell id="LMiCmeVsYC1KzsGFryo7-18" value="" style="line;strokeWidth=1;fillColor=none;align=left;verticalAlign=middle;spacingTop=-1;spacingLeft=3;spacingRight=3;rotatable=0;labelPosition=right;points=[];portConstraint=eastwest;strokeColor=inherit;" vertex="1" parent="LMiCmeVsYC1KzsGFryo7-16">
          <mxGeometry y="52" width="130" height="8" as="geometry" />
        </mxCell>
        <mxCell id="LMiCmeVsYC1KzsGFryo7-19" value="+ method(type): type" style="text;strokeColor=none;fillColor=none;align=left;verticalAlign=top;spacingLeft=4;spacingRight=4;overflow=hidden;rotatable=0;points=[[0,0.5],[1,0.5]];portConstraint=eastwest;whiteSpace=wrap;html=1;" vertex="1" parent="LMiCmeVsYC1KzsGFryo7-16">
          <mxGeometry y="60" width="130" height="26" as="geometry" />
        </mxCell>
        <mxCell id="LMiCmeVsYC1KzsGFryo7-20" value="Gmail" style="swimlane;fontStyle=1;align=center;verticalAlign=top;childLayout=stackLayout;horizontal=1;startSize=26;horizontalStack=0;resizeParent=1;resizeParentMax=0;resizeLast=0;collapsible=1;marginBottom=0;whiteSpace=wrap;html=1;" vertex="1" parent="1">
          <mxGeometry x="1235" y="474" width="130" height="86" as="geometry" />
        </mxCell>
        <mxCell id="LMiCmeVsYC1KzsGFryo7-21" value="+ field: type" style="text;strokeColor=none;fillColor=none;align=left;verticalAlign=top;spacingLeft=4;spacingRight=4;overflow=hidden;rotatable=0;points=[[0,0.5],[1,0.5]];portConstraint=eastwest;whiteSpace=wrap;html=1;" vertex="1" parent="LMiCmeVsYC1KzsGFryo7-20">
          <mxGeometry y="26" width="130" height="26" as="geometry" />
        </mxCell>
        <mxCell id="LMiCmeVsYC1KzsGFryo7-22" value="" style="line;strokeWidth=1;fillColor=none;align=left;verticalAlign=middle;spacingTop=-1;spacingLeft=3;spacingRight=3;rotatable=0;labelPosition=right;points=[];portConstraint=eastwest;strokeColor=inherit;" vertex="1" parent="LMiCmeVsYC1KzsGFryo7-20">
          <mxGeometry y="52" width="130" height="8" as="geometry" />
        </mxCell>
        <mxCell id="LMiCmeVsYC1KzsGFryo7-23" value="+ method(type): type" style="text;strokeColor=none;fillColor=none;align=left;verticalAlign=top;spacingLeft=4;spacingRight=4;overflow=hidden;rotatable=0;points=[[0,0.5],[1,0.5]];portConstraint=eastwest;whiteSpace=wrap;html=1;" vertex="1" parent="LMiCmeVsYC1KzsGFryo7-20">
          <mxGeometry y="60" width="130" height="26" as="geometry" />
        </mxCell>
        <mxCell id="LMiCmeVsYC1KzsGFryo7-24" value="Parser" style="swimlane;fontStyle=1;align=center;verticalAlign=top;childLayout=stackLayout;horizontal=1;startSize=26;horizontalStack=0;resizeParent=1;resizeParentMax=0;resizeLast=0;collapsible=1;marginBottom=0;whiteSpace=wrap;html=1;" vertex="1" parent="1">
          <mxGeometry x="1515" y="885" width="150" height="86" as="geometry" />
        </mxCell>
        <mxCell id="LMiCmeVsYC1KzsGFryo7-25" value="+ field: type" style="text;strokeColor=none;fillColor=none;align=left;verticalAlign=top;spacingLeft=4;spacingRight=4;overflow=hidden;rotatable=0;points=[[0,0.5],[1,0.5]];portConstraint=eastwest;whiteSpace=wrap;html=1;" vertex="1" parent="LMiCmeVsYC1KzsGFryo7-24">
          <mxGeometry y="26" width="150" height="26" as="geometry" />
        </mxCell>
        <mxCell id="LMiCmeVsYC1KzsGFryo7-26" value="" style="line;strokeWidth=1;fillColor=none;align=left;verticalAlign=middle;spacingTop=-1;spacingLeft=3;spacingRight=3;rotatable=0;labelPosition=right;points=[];portConstraint=eastwest;strokeColor=inherit;" vertex="1" parent="LMiCmeVsYC1KzsGFryo7-24">
          <mxGeometry y="52" width="150" height="8" as="geometry" />
        </mxCell>
        <mxCell id="LMiCmeVsYC1KzsGFryo7-27" value="+ method(type): type" style="text;strokeColor=none;fillColor=none;align=left;verticalAlign=top;spacingLeft=4;spacingRight=4;overflow=hidden;rotatable=0;points=[[0,0.5],[1,0.5]];portConstraint=eastwest;whiteSpace=wrap;html=1;" vertex="1" parent="LMiCmeVsYC1KzsGFryo7-24">
          <mxGeometry y="60" width="150" height="26" as="geometry" />
        </mxCell>
        <mxCell id="LMiCmeVsYC1KzsGFryo7-31" value="Решение тестов" style="shape=umlFrame;whiteSpace=wrap;html=1;pointerEvents=0;width=100;height=30;" vertex="1" parent="1">
          <mxGeometry x="1925" y="535" width="440" height="380" as="geometry" />
        </mxCell>
        <mxCell id="LMiCmeVsYC1KzsGFryo7-46" style="edgeStyle=orthogonalEdgeStyle;rounded=0;orthogonalLoop=1;jettySize=auto;html=1;entryX=0.5;entryY=0;entryDx=0;entryDy=0;" edge="1" parent="1" source="LMiCmeVsYC1KzsGFryo7-33" target="LMiCmeVsYC1KzsGFryo7-45">
          <mxGeometry relative="1" as="geometry" />
        </mxCell>
        <mxCell id="LMiCmeVsYC1KzsGFryo7-33" value="Telegram Бот" style="html=1;whiteSpace=wrap;" vertex="1" parent="1">
          <mxGeometry x="487.5" y="350" width="110" height="50" as="geometry" />
        </mxCell>
        <mxCell id="LMiCmeVsYC1KzsGFryo7-37" value="" style="endArrow=classic;html=1;rounded=0;entryX=0.265;entryY=0.003;entryDx=0;entryDy=0;entryPerimeter=0;" edge="1" parent="1" target="LMiCmeVsYC1KzsGFryo7-33">
          <mxGeometry width="50" height="50" relative="1" as="geometry">
            <mxPoint x="517.5" y="302" as="sourcePoint" />
            <mxPoint x="537.5" y="252" as="targetPoint" />
          </mxGeometry>
        </mxCell>
        <mxCell id="LMiCmeVsYC1KzsGFryo7-38" value="" style="endArrow=classic;html=1;rounded=0;entryX=0.725;entryY=-0.012;entryDx=0;entryDy=0;entryPerimeter=0;" edge="1" parent="1" target="LMiCmeVsYC1KzsGFryo7-33">
          <mxGeometry width="50" height="50" relative="1" as="geometry">
            <mxPoint x="567.5" y="302" as="sourcePoint" />
            <mxPoint x="597.5" y="272" as="targetPoint" />
          </mxGeometry>
        </mxCell>
        <mxCell id="LMiCmeVsYC1KzsGFryo7-39" value="Login" style="text;html=1;strokeColor=none;fillColor=none;align=center;verticalAlign=middle;whiteSpace=wrap;rounded=0;" vertex="1" parent="1">
          <mxGeometry x="487.5" y="280" width="60" height="30" as="geometry" />
        </mxCell>
        <mxCell id="LMiCmeVsYC1KzsGFryo7-40" value="Password" style="text;html=1;strokeColor=none;fillColor=none;align=center;verticalAlign=middle;whiteSpace=wrap;rounded=0;" vertex="1" parent="1">
          <mxGeometry x="537.5" y="280" width="60" height="30" as="geometry" />
        </mxCell>
        <mxCell id="LMiCmeVsYC1KzsGFryo7-51" style="edgeStyle=orthogonalEdgeStyle;rounded=0;orthogonalLoop=1;jettySize=auto;html=1;entryX=0.5;entryY=0;entryDx=0;entryDy=0;exitX=1;exitY=0.5;exitDx=0;exitDy=0;" edge="1" parent="1" source="LMiCmeVsYC1KzsGFryo7-45" target="LMiCmeVsYC1KzsGFryo7-48">
          <mxGeometry relative="1" as="geometry" />
        </mxCell>
        <mxCell id="LMiCmeVsYC1KzsGFryo7-57" style="edgeStyle=orthogonalEdgeStyle;rounded=0;orthogonalLoop=1;jettySize=auto;html=1;exitX=0;exitY=0.5;exitDx=0;exitDy=0;entryX=0;entryY=0.5;entryDx=0;entryDy=0;" edge="1" parent="1" source="LMiCmeVsYC1KzsGFryo7-45" target="LMiCmeVsYC1KzsGFryo7-49">
          <mxGeometry relative="1" as="geometry" />
        </mxCell>
        <mxCell id="LMiCmeVsYC1KzsGFryo7-45" value="Есть ли аккаунт в БД" style="rhombus;whiteSpace=wrap;html=1;" vertex="1" parent="1">
          <mxGeometry x="470" y="430" width="145" height="90" as="geometry" />
        </mxCell>
        <mxCell id="LMiCmeVsYC1KzsGFryo7-59" style="edgeStyle=orthogonalEdgeStyle;rounded=0;orthogonalLoop=1;jettySize=auto;html=1;entryX=0.5;entryY=0;entryDx=0;entryDy=0;" edge="1" parent="1" source="LMiCmeVsYC1KzsGFryo7-48" target="LMiCmeVsYC1KzsGFryo7-49">
          <mxGeometry relative="1" as="geometry" />
        </mxCell>
        <mxCell id="LMiCmeVsYC1KzsGFryo7-48" value="Регистрация" style="rounded=0;whiteSpace=wrap;html=1;" vertex="1" parent="1">
          <mxGeometry x="615" y="520" width="120" height="60" as="geometry" />
        </mxCell>
        <mxCell id="LMiCmeVsYC1KzsGFryo7-60" style="edgeStyle=orthogonalEdgeStyle;rounded=0;orthogonalLoop=1;jettySize=auto;html=1;entryX=0.5;entryY=0;entryDx=0;entryDy=0;" edge="1" parent="1" source="LMiCmeVsYC1KzsGFryo7-49" target="LMiCmeVsYC1KzsGFryo7-50">
          <mxGeometry relative="1" as="geometry" />
        </mxCell>
        <mxCell id="LMiCmeVsYC1KzsGFryo7-49" value="Парсинг страницы авторизации" style="rounded=0;whiteSpace=wrap;html=1;" vertex="1" parent="1">
          <mxGeometry x="482.75" y="600" width="120" height="60" as="geometry" />
        </mxCell>
        <mxCell id="LMiCmeVsYC1KzsGFryo7-62" style="edgeStyle=orthogonalEdgeStyle;rounded=0;orthogonalLoop=1;jettySize=auto;html=1;entryX=0.5;entryY=0;entryDx=0;entryDy=0;" edge="1" parent="1" source="LMiCmeVsYC1KzsGFryo7-50" target="LMiCmeVsYC1KzsGFryo7-61">
          <mxGeometry relative="1" as="geometry" />
        </mxCell>
        <mxCell id="LMiCmeVsYC1KzsGFryo7-50" value="Авторизация" style="rounded=0;whiteSpace=wrap;html=1;" vertex="1" parent="1">
          <mxGeometry x="482.25" y="700" width="120" height="60" as="geometry" />
        </mxCell>
        <mxCell id="LMiCmeVsYC1KzsGFryo7-54" value="Нет" style="text;html=1;strokeColor=none;fillColor=none;align=center;verticalAlign=middle;whiteSpace=wrap;rounded=0;" vertex="1" parent="1">
          <mxGeometry x="610" y="450" width="60" height="30" as="geometry" />
        </mxCell>
        <mxCell id="LMiCmeVsYC1KzsGFryo7-58" value="Да" style="text;html=1;strokeColor=none;fillColor=none;align=center;verticalAlign=middle;whiteSpace=wrap;rounded=0;" vertex="1" parent="1">
          <mxGeometry x="422" y="450" width="60" height="30" as="geometry" />
        </mxCell>
        <mxCell id="LMiCmeVsYC1KzsGFryo7-64" style="edgeStyle=orthogonalEdgeStyle;rounded=0;orthogonalLoop=1;jettySize=auto;html=1;entryX=0.5;entryY=0;entryDx=0;entryDy=0;" edge="1" parent="1" source="LMiCmeVsYC1KzsGFryo7-61" target="LMiCmeVsYC1KzsGFryo7-63">
          <mxGeometry relative="1" as="geometry" />
        </mxCell>
        <mxCell id="LMiCmeVsYC1KzsGFryo7-61" value="Парсинг страницы курсов" style="rounded=0;whiteSpace=wrap;html=1;" vertex="1" parent="1">
          <mxGeometry x="482.75" y="800" width="120" height="60" as="geometry" />
        </mxCell>
        <mxCell id="LMiCmeVsYC1KzsGFryo7-77" style="edgeStyle=orthogonalEdgeStyle;rounded=0;orthogonalLoop=1;jettySize=auto;html=1;entryX=0.5;entryY=0;entryDx=0;entryDy=0;" edge="1" parent="1" source="LMiCmeVsYC1KzsGFryo7-63" target="LMiCmeVsYC1KzsGFryo7-65">
          <mxGeometry relative="1" as="geometry" />
        </mxCell>
        <mxCell id="LMiCmeVsYC1KzsGFryo7-63" value="открытие необходимого курса и теста" style="rounded=0;whiteSpace=wrap;html=1;" vertex="1" parent="1">
          <mxGeometry x="482" y="900" width="120" height="60" as="geometry" />
        </mxCell>
        <mxCell id="LMiCmeVsYC1KzsGFryo7-68" style="edgeStyle=orthogonalEdgeStyle;rounded=0;orthogonalLoop=1;jettySize=auto;html=1;entryX=0.5;entryY=0;entryDx=0;entryDy=0;" edge="1" parent="1" source="LMiCmeVsYC1KzsGFryo7-65" target="LMiCmeVsYC1KzsGFryo7-67">
          <mxGeometry relative="1" as="geometry" />
        </mxCell>
        <mxCell id="LMiCmeVsYC1KzsGFryo7-71" style="edgeStyle=orthogonalEdgeStyle;rounded=0;orthogonalLoop=1;jettySize=auto;html=1;entryX=0.5;entryY=0;entryDx=0;entryDy=0;" edge="1" parent="1" source="LMiCmeVsYC1KzsGFryo7-65" target="LMiCmeVsYC1KzsGFryo7-70">
          <mxGeometry relative="1" as="geometry" />
        </mxCell>
        <mxCell id="LMiCmeVsYC1KzsGFryo7-65" value="Тест окончен" style="rhombus;whiteSpace=wrap;html=1;" vertex="1" parent="1">
          <mxGeometry x="494.25" y="1002" width="97" height="74" as="geometry" />
        </mxCell>
        <mxCell id="LMiCmeVsYC1KzsGFryo7-67" value="Выдача сообщения об успешном заверщении" style="rounded=0;whiteSpace=wrap;html=1;" vertex="1" parent="1">
          <mxGeometry x="610" y="1460" width="120" height="60" as="geometry" />
        </mxCell>
        <mxCell id="LMiCmeVsYC1KzsGFryo7-69" value="Да" style="text;html=1;strokeColor=none;fillColor=none;align=center;verticalAlign=middle;whiteSpace=wrap;rounded=0;" vertex="1" parent="1">
          <mxGeometry x="580" y="1012" width="60" height="30" as="geometry" />
        </mxCell>
        <mxCell id="LMiCmeVsYC1KzsGFryo7-78" style="edgeStyle=orthogonalEdgeStyle;rounded=0;orthogonalLoop=1;jettySize=auto;html=1;entryX=0.5;entryY=0;entryDx=0;entryDy=0;" edge="1" parent="1" source="LMiCmeVsYC1KzsGFryo7-70" target="LMiCmeVsYC1KzsGFryo7-73">
          <mxGeometry relative="1" as="geometry" />
        </mxCell>
        <mxCell id="LMiCmeVsYC1KzsGFryo7-70" value="Парсинг страницы" style="rounded=0;whiteSpace=wrap;html=1;" vertex="1" parent="1">
          <mxGeometry x="482.75" y="1110" width="120" height="60" as="geometry" />
        </mxCell>
        <mxCell id="LMiCmeVsYC1KzsGFryo7-72" value="Нет" style="text;html=1;strokeColor=none;fillColor=none;align=center;verticalAlign=middle;whiteSpace=wrap;rounded=0;" vertex="1" parent="1">
          <mxGeometry x="500" y="1070" width="60" height="30" as="geometry" />
        </mxCell>
        <mxCell id="LMiCmeVsYC1KzsGFryo7-79" style="edgeStyle=orthogonalEdgeStyle;rounded=0;orthogonalLoop=1;jettySize=auto;html=1;entryX=0.5;entryY=0;entryDx=0;entryDy=0;" edge="1" parent="1" source="LMiCmeVsYC1KzsGFryo7-73" target="LMiCmeVsYC1KzsGFryo7-74">
          <mxGeometry relative="1" as="geometry" />
        </mxCell>
        <mxCell id="LMiCmeVsYC1KzsGFryo7-73" value="Классификация вопроса" style="rounded=0;whiteSpace=wrap;html=1;" vertex="1" parent="1">
          <mxGeometry x="482.25" y="1200" width="120" height="60" as="geometry" />
        </mxCell>
        <mxCell id="LMiCmeVsYC1KzsGFryo7-81" style="edgeStyle=orthogonalEdgeStyle;rounded=0;orthogonalLoop=1;jettySize=auto;html=1;entryX=0.5;entryY=0;entryDx=0;entryDy=0;" edge="1" parent="1" source="LMiCmeVsYC1KzsGFryo7-74" target="LMiCmeVsYC1KzsGFryo7-75">
          <mxGeometry relative="1" as="geometry" />
        </mxCell>
        <mxCell id="LMiCmeVsYC1KzsGFryo7-74" value="Поиск вопроса в бд" style="rounded=0;whiteSpace=wrap;html=1;" vertex="1" parent="1">
          <mxGeometry x="482" y="1290" width="120" height="60" as="geometry" />
        </mxCell>
        <mxCell id="LMiCmeVsYC1KzsGFryo7-82" style="edgeStyle=orthogonalEdgeStyle;rounded=0;orthogonalLoop=1;jettySize=auto;html=1;" edge="1" parent="1" source="LMiCmeVsYC1KzsGFryo7-75">
          <mxGeometry relative="1" as="geometry">
            <mxPoint x="542" y="980" as="targetPoint" />
            <Array as="points">
              <mxPoint x="371" y="1410" />
              <mxPoint x="371" y="980" />
            </Array>
          </mxGeometry>
        </mxCell>
        <mxCell id="LMiCmeVsYC1KzsGFryo7-75" value="Ввод ответа" style="rounded=0;whiteSpace=wrap;html=1;" vertex="1" parent="1">
          <mxGeometry x="482" y="1380" width="120" height="60" as="geometry" />
        </mxCell>
        <mxCell id="LMiCmeVsYC1KzsGFryo7-83" value="Алгоритм" style="shape=umlFrame;whiteSpace=wrap;html=1;pointerEvents=0;width=70;height=30;" vertex="1" parent="1">
          <mxGeometry x="340" y="280" width="410" height="1260" as="geometry" />
        </mxCell>
        <mxCell id="LMiCmeVsYC1KzsGFryo7-92" value="AccountDB" style="swimlane;fontStyle=1;align=center;verticalAlign=top;childLayout=stackLayout;horizontal=1;startSize=26;horizontalStack=0;resizeParent=1;resizeParentMax=0;resizeLast=0;collapsible=1;marginBottom=0;whiteSpace=wrap;html=1;" vertex="1" parent="1">
          <mxGeometry x="1075" y="785" width="160" height="150" as="geometry" />
        </mxCell>
        <mxCell id="LMiCmeVsYC1KzsGFryo7-93" value="+ userId&lt;br&gt;+ username&lt;br&gt;+ password" style="text;strokeColor=none;fillColor=none;align=left;verticalAlign=top;spacingLeft=4;spacingRight=4;overflow=hidden;rotatable=0;points=[[0,0.5],[1,0.5]];portConstraint=eastwest;whiteSpace=wrap;html=1;" vertex="1" parent="LMiCmeVsYC1KzsGFryo7-92">
          <mxGeometry y="26" width="160" height="54" as="geometry" />
        </mxCell>
        <mxCell id="LMiCmeVsYC1KzsGFryo7-94" value="" style="line;strokeWidth=1;fillColor=none;align=left;verticalAlign=middle;spacingTop=-1;spacingLeft=3;spacingRight=3;rotatable=0;labelPosition=right;points=[];portConstraint=eastwest;strokeColor=inherit;" vertex="1" parent="LMiCmeVsYC1KzsGFryo7-92">
          <mxGeometry y="80" width="160" height="8" as="geometry" />
        </mxCell>
        <mxCell id="LMiCmeVsYC1KzsGFryo7-95" value="+ addUser(): void&lt;br&gt;+ removeUser(): void&lt;br&gt;+ updateUser(): void" style="text;strokeColor=none;fillColor=none;align=left;verticalAlign=top;spacingLeft=4;spacingRight=4;overflow=hidden;rotatable=0;points=[[0,0.5],[1,0.5]];portConstraint=eastwest;whiteSpace=wrap;html=1;" vertex="1" parent="LMiCmeVsYC1KzsGFryo7-92">
          <mxGeometry y="88" width="160" height="62" as="geometry" />
        </mxCell>
        <mxCell id="LMiCmeVsYC1KzsGFryo7-96" value="AnswerDB" style="swimlane;fontStyle=1;align=center;verticalAlign=top;childLayout=stackLayout;horizontal=1;startSize=26;horizontalStack=0;resizeParent=1;resizeParentMax=0;resizeLast=0;collapsible=1;marginBottom=0;whiteSpace=wrap;html=1;" vertex="1" parent="1">
          <mxGeometry x="1310" y="785" width="160" height="150" as="geometry" />
        </mxCell>
        <mxCell id="LMiCmeVsYC1KzsGFryo7-97" value="+ questionId&lt;br&gt;+ answer" style="text;strokeColor=none;fillColor=none;align=left;verticalAlign=top;spacingLeft=4;spacingRight=4;overflow=hidden;rotatable=0;points=[[0,0.5],[1,0.5]];portConstraint=eastwest;whiteSpace=wrap;html=1;" vertex="1" parent="LMiCmeVsYC1KzsGFryo7-96">
          <mxGeometry y="26" width="160" height="44" as="geometry" />
        </mxCell>
        <mxCell id="LMiCmeVsYC1KzsGFryo7-98" value="" style="line;strokeWidth=1;fillColor=none;align=left;verticalAlign=middle;spacingTop=-1;spacingLeft=3;spacingRight=3;rotatable=0;labelPosition=right;points=[];portConstraint=eastwest;strokeColor=inherit;" vertex="1" parent="LMiCmeVsYC1KzsGFryo7-96">
          <mxGeometry y="70" width="160" height="8" as="geometry" />
        </mxCell>
        <mxCell id="LMiCmeVsYC1KzsGFryo7-99" value="+ addAnswer(): void&lt;br&gt;+ removeAnswer(): void&lt;br&gt;+ updateAnswer(): void&lt;br&gt;+ getAnswer(): void" style="text;strokeColor=none;fillColor=none;align=left;verticalAlign=top;spacingLeft=4;spacingRight=4;overflow=hidden;rotatable=0;points=[[0,0.5],[1,0.5]];portConstraint=eastwest;whiteSpace=wrap;html=1;" vertex="1" parent="LMiCmeVsYC1KzsGFryo7-96">
          <mxGeometry y="78" width="160" height="72" as="geometry" />
        </mxCell>
        <mxCell id="LMiCmeVsYC1KzsGFryo7-101" value="" style="endArrow=block;dashed=1;endFill=0;endSize=12;html=1;rounded=0;exitX=0.5;exitY=0;exitDx=0;exitDy=0;entryX=0.25;entryY=1;entryDx=0;entryDy=0;" edge="1" parent="1" source="LMiCmeVsYC1KzsGFryo7-16" target="LMiCmeVsYC1KzsGFryo7-15">
          <mxGeometry width="160" relative="1" as="geometry">
            <mxPoint x="875" y="500" as="sourcePoint" />
            <mxPoint x="1035" y="500" as="targetPoint" />
          </mxGeometry>
        </mxCell>
        <mxCell id="LMiCmeVsYC1KzsGFryo7-102" value="" style="endArrow=block;dashed=1;endFill=0;endSize=12;html=1;rounded=0;exitX=0.5;exitY=0;exitDx=0;exitDy=0;entryX=0.75;entryY=1;entryDx=0;entryDy=0;" edge="1" parent="1" source="LMiCmeVsYC1KzsGFryo7-20" target="LMiCmeVsYC1KzsGFryo7-15">
          <mxGeometry width="160" relative="1" as="geometry">
            <mxPoint x="1155" y="484" as="sourcePoint" />
            <mxPoint x="1208" y="448" as="targetPoint" />
          </mxGeometry>
        </mxCell>
        <mxCell id="LMiCmeVsYC1KzsGFryo7-103" value="" style="endArrow=block;dashed=1;endFill=0;endSize=12;html=1;rounded=0;entryX=0;entryY=0.5;entryDx=0;entryDy=0;edgeStyle=orthogonalEdgeStyle;" edge="1" parent="1" target="LMiCmeVsYC1KzsGFryo7-15">
          <mxGeometry width="160" relative="1" as="geometry">
            <mxPoint x="1010" y="585" as="sourcePoint" />
            <mxPoint x="1238" y="458" as="targetPoint" />
            <Array as="points">
              <mxPoint x="1035" y="585" />
              <mxPoint x="1035" y="413" />
            </Array>
          </mxGeometry>
        </mxCell>
        <mxCell id="LMiCmeVsYC1KzsGFryo7-105" value="«interface»&lt;br&gt;&lt;b&gt;I&lt;/b&gt;classification" style="html=1;whiteSpace=wrap;" vertex="1" parent="1">
          <mxGeometry x="2045" y="705" width="110" height="50" as="geometry" />
        </mxCell>
        <mxCell id="LMiCmeVsYC1KzsGFryo7-106" value="OneOption" style="swimlane;fontStyle=1;align=center;verticalAlign=top;childLayout=stackLayout;horizontal=1;startSize=26;horizontalStack=0;resizeParent=1;resizeParentMax=0;resizeLast=0;collapsible=1;marginBottom=0;whiteSpace=wrap;html=1;" vertex="1" parent="1">
          <mxGeometry x="1965" y="576" width="130" height="86" as="geometry" />
        </mxCell>
        <mxCell id="LMiCmeVsYC1KzsGFryo7-107" value="+ field: type" style="text;strokeColor=none;fillColor=none;align=left;verticalAlign=top;spacingLeft=4;spacingRight=4;overflow=hidden;rotatable=0;points=[[0,0.5],[1,0.5]];portConstraint=eastwest;whiteSpace=wrap;html=1;" vertex="1" parent="LMiCmeVsYC1KzsGFryo7-106">
          <mxGeometry y="26" width="130" height="26" as="geometry" />
        </mxCell>
        <mxCell id="LMiCmeVsYC1KzsGFryo7-108" value="" style="line;strokeWidth=1;fillColor=none;align=left;verticalAlign=middle;spacingTop=-1;spacingLeft=3;spacingRight=3;rotatable=0;labelPosition=right;points=[];portConstraint=eastwest;strokeColor=inherit;" vertex="1" parent="LMiCmeVsYC1KzsGFryo7-106">
          <mxGeometry y="52" width="130" height="8" as="geometry" />
        </mxCell>
        <mxCell id="LMiCmeVsYC1KzsGFryo7-109" value="+ method(type): type" style="text;strokeColor=none;fillColor=none;align=left;verticalAlign=top;spacingLeft=4;spacingRight=4;overflow=hidden;rotatable=0;points=[[0,0.5],[1,0.5]];portConstraint=eastwest;whiteSpace=wrap;html=1;" vertex="1" parent="LMiCmeVsYC1KzsGFryo7-106">
          <mxGeometry y="60" width="130" height="26" as="geometry" />
        </mxCell>
        <mxCell id="LMiCmeVsYC1KzsGFryo7-110" value="ManyOptions" style="swimlane;fontStyle=1;align=center;verticalAlign=top;childLayout=stackLayout;horizontal=1;startSize=26;horizontalStack=0;resizeParent=1;resizeParentMax=0;resizeLast=0;collapsible=1;marginBottom=0;whiteSpace=wrap;html=1;" vertex="1" parent="1">
          <mxGeometry x="1970" y="817" width="130" height="86" as="geometry" />
        </mxCell>
        <mxCell id="LMiCmeVsYC1KzsGFryo7-111" value="+ field: type" style="text;strokeColor=none;fillColor=none;align=left;verticalAlign=top;spacingLeft=4;spacingRight=4;overflow=hidden;rotatable=0;points=[[0,0.5],[1,0.5]];portConstraint=eastwest;whiteSpace=wrap;html=1;" vertex="1" parent="LMiCmeVsYC1KzsGFryo7-110">
          <mxGeometry y="26" width="130" height="26" as="geometry" />
        </mxCell>
        <mxCell id="LMiCmeVsYC1KzsGFryo7-112" value="" style="line;strokeWidth=1;fillColor=none;align=left;verticalAlign=middle;spacingTop=-1;spacingLeft=3;spacingRight=3;rotatable=0;labelPosition=right;points=[];portConstraint=eastwest;strokeColor=inherit;" vertex="1" parent="LMiCmeVsYC1KzsGFryo7-110">
          <mxGeometry y="52" width="130" height="8" as="geometry" />
        </mxCell>
        <mxCell id="LMiCmeVsYC1KzsGFryo7-113" value="+ method(type): type" style="text;strokeColor=none;fillColor=none;align=left;verticalAlign=top;spacingLeft=4;spacingRight=4;overflow=hidden;rotatable=0;points=[[0,0.5],[1,0.5]];portConstraint=eastwest;whiteSpace=wrap;html=1;" vertex="1" parent="LMiCmeVsYC1KzsGFryo7-110">
          <mxGeometry y="60" width="130" height="26" as="geometry" />
        </mxCell>
        <mxCell id="LMiCmeVsYC1KzsGFryo7-114" value="EnteringText" style="swimlane;fontStyle=1;align=center;verticalAlign=top;childLayout=stackLayout;horizontal=1;startSize=26;horizontalStack=0;resizeParent=1;resizeParentMax=0;resizeLast=0;collapsible=1;marginBottom=0;whiteSpace=wrap;html=1;" vertex="1" parent="1">
          <mxGeometry x="2125" y="562" width="130" height="86" as="geometry" />
        </mxCell>
        <mxCell id="LMiCmeVsYC1KzsGFryo7-115" value="+ field: type" style="text;strokeColor=none;fillColor=none;align=left;verticalAlign=top;spacingLeft=4;spacingRight=4;overflow=hidden;rotatable=0;points=[[0,0.5],[1,0.5]];portConstraint=eastwest;whiteSpace=wrap;html=1;" vertex="1" parent="LMiCmeVsYC1KzsGFryo7-114">
          <mxGeometry y="26" width="130" height="26" as="geometry" />
        </mxCell>
        <mxCell id="LMiCmeVsYC1KzsGFryo7-116" value="" style="line;strokeWidth=1;fillColor=none;align=left;verticalAlign=middle;spacingTop=-1;spacingLeft=3;spacingRight=3;rotatable=0;labelPosition=right;points=[];portConstraint=eastwest;strokeColor=inherit;" vertex="1" parent="LMiCmeVsYC1KzsGFryo7-114">
          <mxGeometry y="52" width="130" height="8" as="geometry" />
        </mxCell>
        <mxCell id="LMiCmeVsYC1KzsGFryo7-117" value="+ method(type): type" style="text;strokeColor=none;fillColor=none;align=left;verticalAlign=top;spacingLeft=4;spacingRight=4;overflow=hidden;rotatable=0;points=[[0,0.5],[1,0.5]];portConstraint=eastwest;whiteSpace=wrap;html=1;" vertex="1" parent="LMiCmeVsYC1KzsGFryo7-114">
          <mxGeometry y="60" width="130" height="26" as="geometry" />
        </mxCell>
        <mxCell id="LMiCmeVsYC1KzsGFryo7-118" value="EnteringFile" style="swimlane;fontStyle=1;align=center;verticalAlign=top;childLayout=stackLayout;horizontal=1;startSize=26;horizontalStack=0;resizeParent=1;resizeParentMax=0;resizeLast=0;collapsible=1;marginBottom=0;whiteSpace=wrap;html=1;" vertex="1" parent="1">
          <mxGeometry x="2195" y="675" width="160" height="86" as="geometry" />
        </mxCell>
        <mxCell id="LMiCmeVsYC1KzsGFryo7-119" value="+ field: type" style="text;strokeColor=none;fillColor=none;align=left;verticalAlign=top;spacingLeft=4;spacingRight=4;overflow=hidden;rotatable=0;points=[[0,0.5],[1,0.5]];portConstraint=eastwest;whiteSpace=wrap;html=1;" vertex="1" parent="LMiCmeVsYC1KzsGFryo7-118">
          <mxGeometry y="26" width="160" height="26" as="geometry" />
        </mxCell>
        <mxCell id="LMiCmeVsYC1KzsGFryo7-120" value="" style="line;strokeWidth=1;fillColor=none;align=left;verticalAlign=middle;spacingTop=-1;spacingLeft=3;spacingRight=3;rotatable=0;labelPosition=right;points=[];portConstraint=eastwest;strokeColor=inherit;" vertex="1" parent="LMiCmeVsYC1KzsGFryo7-118">
          <mxGeometry y="52" width="160" height="8" as="geometry" />
        </mxCell>
        <mxCell id="LMiCmeVsYC1KzsGFryo7-121" value="+ method(type): type" style="text;strokeColor=none;fillColor=none;align=left;verticalAlign=top;spacingLeft=4;spacingRight=4;overflow=hidden;rotatable=0;points=[[0,0.5],[1,0.5]];portConstraint=eastwest;whiteSpace=wrap;html=1;" vertex="1" parent="LMiCmeVsYC1KzsGFryo7-118">
          <mxGeometry y="60" width="160" height="26" as="geometry" />
        </mxCell>
        <mxCell id="LMiCmeVsYC1KzsGFryo7-122" value="MatchingSearch" style="swimlane;fontStyle=1;align=center;verticalAlign=top;childLayout=stackLayout;horizontal=1;startSize=26;horizontalStack=0;resizeParent=1;resizeParentMax=0;resizeLast=0;collapsible=1;marginBottom=0;whiteSpace=wrap;html=1;" vertex="1" parent="1">
          <mxGeometry x="2125" y="795" width="160" height="86" as="geometry" />
        </mxCell>
        <mxCell id="LMiCmeVsYC1KzsGFryo7-123" value="+ field: type" style="text;strokeColor=none;fillColor=none;align=left;verticalAlign=top;spacingLeft=4;spacingRight=4;overflow=hidden;rotatable=0;points=[[0,0.5],[1,0.5]];portConstraint=eastwest;whiteSpace=wrap;html=1;" vertex="1" parent="LMiCmeVsYC1KzsGFryo7-122">
          <mxGeometry y="26" width="160" height="26" as="geometry" />
        </mxCell>
        <mxCell id="LMiCmeVsYC1KzsGFryo7-124" value="" style="line;strokeWidth=1;fillColor=none;align=left;verticalAlign=middle;spacingTop=-1;spacingLeft=3;spacingRight=3;rotatable=0;labelPosition=right;points=[];portConstraint=eastwest;strokeColor=inherit;" vertex="1" parent="LMiCmeVsYC1KzsGFryo7-122">
          <mxGeometry y="52" width="160" height="8" as="geometry" />
        </mxCell>
        <mxCell id="LMiCmeVsYC1KzsGFryo7-125" value="+ method(type): type" style="text;strokeColor=none;fillColor=none;align=left;verticalAlign=top;spacingLeft=4;spacingRight=4;overflow=hidden;rotatable=0;points=[[0,0.5],[1,0.5]];portConstraint=eastwest;whiteSpace=wrap;html=1;" vertex="1" parent="LMiCmeVsYC1KzsGFryo7-122">
          <mxGeometry y="60" width="160" height="26" as="geometry" />
        </mxCell>
        <mxCell id="LMiCmeVsYC1KzsGFryo7-126" value="" style="endArrow=block;dashed=1;endFill=0;endSize=12;html=1;rounded=0;entryX=0.5;entryY=0;entryDx=0;entryDy=0;exitX=0.801;exitY=1.055;exitDx=0;exitDy=0;exitPerimeter=0;" edge="1" parent="1" source="LMiCmeVsYC1KzsGFryo7-109" target="LMiCmeVsYC1KzsGFryo7-105">
          <mxGeometry width="160" relative="1" as="geometry">
            <mxPoint x="2025" y="665" as="sourcePoint" />
            <mxPoint x="2155" y="685" as="targetPoint" />
          </mxGeometry>
        </mxCell>
        <mxCell id="LMiCmeVsYC1KzsGFryo7-127" value="" style="endArrow=block;dashed=1;endFill=0;endSize=12;html=1;rounded=0;exitX=0.148;exitY=1.069;exitDx=0;exitDy=0;exitPerimeter=0;entryX=0.575;entryY=-0.016;entryDx=0;entryDy=0;entryPerimeter=0;" edge="1" parent="1" source="LMiCmeVsYC1KzsGFryo7-117" target="LMiCmeVsYC1KzsGFryo7-105">
          <mxGeometry width="160" relative="1" as="geometry">
            <mxPoint x="2125" y="665" as="sourcePoint" />
            <mxPoint x="2285" y="665" as="targetPoint" />
          </mxGeometry>
        </mxCell>
        <mxCell id="LMiCmeVsYC1KzsGFryo7-128" value="" style="endArrow=block;dashed=1;endFill=0;endSize=12;html=1;rounded=0;exitX=-0.007;exitY=1.046;exitDx=0;exitDy=0;exitPerimeter=0;entryX=1;entryY=0.5;entryDx=0;entryDy=0;" edge="1" parent="1" source="LMiCmeVsYC1KzsGFryo7-119" target="LMiCmeVsYC1KzsGFryo7-105">
          <mxGeometry width="160" relative="1" as="geometry">
            <mxPoint x="2005" y="775" as="sourcePoint" />
            <mxPoint x="2165" y="775" as="targetPoint" />
          </mxGeometry>
        </mxCell>
        <mxCell id="LMiCmeVsYC1KzsGFryo7-129" value="" style="endArrow=block;dashed=1;endFill=0;endSize=12;html=1;rounded=0;exitX=0.25;exitY=0;exitDx=0;exitDy=0;entryX=0.75;entryY=1;entryDx=0;entryDy=0;" edge="1" parent="1" source="LMiCmeVsYC1KzsGFryo7-122" target="LMiCmeVsYC1KzsGFryo7-105">
          <mxGeometry width="160" relative="1" as="geometry">
            <mxPoint x="1965" y="785" as="sourcePoint" />
            <mxPoint x="2125" y="785" as="targetPoint" />
          </mxGeometry>
        </mxCell>
        <mxCell id="LMiCmeVsYC1KzsGFryo7-130" value="" style="endArrow=block;dashed=1;endFill=0;endSize=12;html=1;rounded=0;exitX=0.5;exitY=0;exitDx=0;exitDy=0;entryX=0.25;entryY=1;entryDx=0;entryDy=0;" edge="1" parent="1" source="LMiCmeVsYC1KzsGFryo7-110" target="LMiCmeVsYC1KzsGFryo7-105">
          <mxGeometry width="160" relative="1" as="geometry">
            <mxPoint x="1975" y="785" as="sourcePoint" />
            <mxPoint x="2135" y="785" as="targetPoint" />
          </mxGeometry>
        </mxCell>
        <mxCell id="LMiCmeVsYC1KzsGFryo7-131" value="DataBase" style="swimlane;fontStyle=1;align=center;verticalAlign=top;childLayout=stackLayout;horizontal=1;startSize=26;horizontalStack=0;resizeParent=1;resizeParentMax=0;resizeLast=0;collapsible=1;marginBottom=0;whiteSpace=wrap;html=1;" vertex="1" parent="1">
          <mxGeometry x="1190" y="615" width="160" height="86" as="geometry" />
        </mxCell>
        <mxCell id="LMiCmeVsYC1KzsGFryo7-132" value="+ field: type" style="text;strokeColor=none;fillColor=none;align=left;verticalAlign=top;spacingLeft=4;spacingRight=4;overflow=hidden;rotatable=0;points=[[0,0.5],[1,0.5]];portConstraint=eastwest;whiteSpace=wrap;html=1;" vertex="1" parent="LMiCmeVsYC1KzsGFryo7-131">
          <mxGeometry y="26" width="160" height="26" as="geometry" />
        </mxCell>
        <mxCell id="LMiCmeVsYC1KzsGFryo7-133" value="" style="line;strokeWidth=1;fillColor=none;align=left;verticalAlign=middle;spacingTop=-1;spacingLeft=3;spacingRight=3;rotatable=0;labelPosition=right;points=[];portConstraint=eastwest;strokeColor=inherit;" vertex="1" parent="LMiCmeVsYC1KzsGFryo7-131">
          <mxGeometry y="52" width="160" height="8" as="geometry" />
        </mxCell>
        <mxCell id="LMiCmeVsYC1KzsGFryo7-134" value="+ check(): void" style="text;strokeColor=none;fillColor=none;align=left;verticalAlign=top;spacingLeft=4;spacingRight=4;overflow=hidden;rotatable=0;points=[[0,0.5],[1,0.5]];portConstraint=eastwest;whiteSpace=wrap;html=1;" vertex="1" parent="LMiCmeVsYC1KzsGFryo7-131">
          <mxGeometry y="60" width="160" height="26" as="geometry" />
        </mxCell>
        <mxCell id="LMiCmeVsYC1KzsGFryo7-135" value="" style="endArrow=diamondThin;endFill=1;endSize=24;html=1;rounded=0;exitX=0.5;exitY=0;exitDx=0;exitDy=0;entryX=0.5;entryY=1;entryDx=0;entryDy=0;edgeStyle=orthogonalEdgeStyle;" edge="1" parent="1" source="LMiCmeVsYC1KzsGFryo7-92" target="LMiCmeVsYC1KzsGFryo7-131">
          <mxGeometry width="160" relative="1" as="geometry">
            <mxPoint x="1120" y="725" as="sourcePoint" />
            <mxPoint x="1280" y="725" as="targetPoint" />
            <Array as="points">
              <mxPoint x="1155" y="743" />
              <mxPoint x="1270" y="743" />
            </Array>
          </mxGeometry>
        </mxCell>
        <mxCell id="LMiCmeVsYC1KzsGFryo7-137" value="" style="endArrow=none;html=1;rounded=0;entryX=0.5;entryY=0;entryDx=0;entryDy=0;exitX=0.499;exitY=0.99;exitDx=0;exitDy=0;exitPerimeter=0;edgeStyle=orthogonalEdgeStyle;" edge="1" parent="1" source="LMiCmeVsYC1KzsGFryo7-134" target="LMiCmeVsYC1KzsGFryo7-96">
          <mxGeometry width="50" height="50" relative="1" as="geometry">
            <mxPoint x="1270" y="745" as="sourcePoint" />
            <mxPoint x="1340" y="735" as="targetPoint" />
          </mxGeometry>
        </mxCell>
        <mxCell id="LMiCmeVsYC1KzsGFryo7-138" value="Базы данных" style="shape=umlFrame;whiteSpace=wrap;html=1;pointerEvents=0;width=65;height=30;" vertex="1" parent="1">
          <mxGeometry x="1065" y="605" width="420" height="340" as="geometry" />
        </mxCell>
        <mxCell id="LMiCmeVsYC1KzsGFryo7-139" value="" style="endArrow=block;dashed=1;endFill=0;endSize=12;html=1;rounded=0;entryX=0;entryY=0.5;entryDx=0;entryDy=0;exitX=1;exitY=0.708;exitDx=0;exitDy=0;exitPerimeter=0;edgeStyle=orthogonalEdgeStyle;" edge="1" parent="1" source="LMiCmeVsYC1KzsGFryo7-4" target="LMiCmeVsYC1KzsGFryo7-134">
          <mxGeometry width="160" relative="1" as="geometry">
            <mxPoint x="1045" y="685" as="sourcePoint" />
            <mxPoint x="1205" y="685" as="targetPoint" />
            <Array as="points">
              <mxPoint x="1035" y="600" />
              <mxPoint x="1035" y="688" />
            </Array>
          </mxGeometry>
        </mxCell>
        <mxCell id="LMiCmeVsYC1KzsGFryo7-140" value="" style="endArrow=block;dashed=1;endFill=0;endSize=12;html=1;rounded=0;exitX=0.004;exitY=0.845;exitDx=0;exitDy=0;exitPerimeter=0;entryX=1.002;entryY=0.632;entryDx=0;entryDy=0;entryPerimeter=0;edgeStyle=orthogonalEdgeStyle;" edge="1" parent="1" source="LMiCmeVsYC1KzsGFryo7-12" target="LMiCmeVsYC1KzsGFryo7-25">
          <mxGeometry width="160" relative="1" as="geometry">
            <mxPoint x="1555" y="754" as="sourcePoint" />
            <mxPoint x="1715" y="754" as="targetPoint" />
            <Array as="points">
              <mxPoint x="1705" y="811" />
              <mxPoint x="1705" y="927" />
            </Array>
          </mxGeometry>
        </mxCell>
        <mxCell id="LMiCmeVsYC1KzsGFryo7-141" value="" style="endArrow=block;dashed=1;endFill=0;endSize=12;html=1;rounded=0;entryX=0;entryY=0.5;entryDx=0;entryDy=0;exitX=1;exitY=0.536;exitDx=0;exitDy=0;exitPerimeter=0;" edge="1" parent="1" source="LMiCmeVsYC1KzsGFryo7-10" target="LMiCmeVsYC1KzsGFryo7-105">
          <mxGeometry width="160" relative="1" as="geometry">
            <mxPoint x="1920" y="725" as="sourcePoint" />
            <mxPoint x="2080" y="725" as="targetPoint" />
          </mxGeometry>
        </mxCell>
        <mxCell id="LMiCmeVsYC1KzsGFryo7-144" value="" style="endArrow=block;dashed=1;endFill=0;endSize=12;html=1;rounded=0;entryX=1;entryY=0.5;entryDx=0;entryDy=0;exitX=-0.004;exitY=0.558;exitDx=0;exitDy=0;edgeStyle=orthogonalEdgeStyle;exitPerimeter=0;" edge="1" parent="1" source="LMiCmeVsYC1KzsGFryo7-12" target="LMiCmeVsYC1KzsGFryo7-134">
          <mxGeometry width="160" relative="1" as="geometry">
            <mxPoint x="1305" y="685" as="sourcePoint" />
            <mxPoint x="1465" y="685" as="targetPoint" />
          </mxGeometry>
        </mxCell>
        <mxCell id="LMiCmeVsYC1KzsGFryo7-146" value="UML" style="shape=umlFrame;whiteSpace=wrap;html=1;pointerEvents=0;" vertex="1" parent="1">
          <mxGeometry x="800" y="360" width="1580" height="640" as="geometry" />
        </mxCell>
      </root>
    </mxGraphModel>
  </diagram>
</mxfile>
